<svg width="31" height="34" viewBox="0 0 31 34" fill="none" xmlns="http://www.w3.org/2000/svg">
<path d="M10.4683 14.3663L0.794006 16.4281L10.4859 19.2651C11.0887 19.4458 11.6322 19.7846 12.0599 20.2463C12.4875 20.708 12.7837 21.2758 12.9177 21.8907L15.3318 33.4857L17.9398 22.1022C18.0926 21.4668 18.4191 20.8864 18.8828 20.4258C19.3464 19.9653 19.929 19.6427 20.5654 19.4942L30.2572 17.2915L20.2834 14.4897C19.688 14.2899 19.1568 13.9346 18.7447 13.4606C18.3327 12.9866 18.0548 12.4111 17.9398 11.7936L15.7195 0.621582L13.1996 11.7231C13.0446 12.3786 12.7049 12.976 12.2208 13.4445C11.7367 13.913 11.1286 14.2329 10.4683 14.3663Z" fill="#0075FF"/>
</svg>
